<?xml version="1.0" encoding="UTF-8" standalone="no"?>
<!DOCTYPE svg PUBLIC "-//W3C//DTD SVG 1.1//EN"
 "http://www.w3.org/Graphics/SVG/1.1/DTD/svg11.dtd">
<!-- Generated by graphviz version 12.1.2 (0)
 -->
<!-- Title: DockerDeps Pages: 1 -->
<svg width="715pt" height="633pt"
 viewBox="0.00 0.00 714.84 632.75" xmlns="http://www.w3.org/2000/svg" xmlns:xlink="http://www.w3.org/1999/xlink">
<g id="graph0" class="graph" transform="scale(1 1) rotate(0) translate(4 628.75)">
<title>DockerDeps</title>
<polygon fill="white" stroke="none" points="-4,4 -4,-628.75 710.84,-628.75 710.84,4 -4,4"/>
<g id="clust1" class="cluster">
<title>clusterDockerfile</title>
<polygon fill="none" stroke="royalblue" points="283,-120.5 283,-539 494,-539 494,-120.5 283,-120.5"/>
<text text-anchor="middle" x="388.5" y="-521.7" font-family="Times,serif" font-size="14.00">docker/&lt;distro&gt;/Dockerfile</text>
</g>
<g id="clust2" class="cluster">
<title>clusterCache</title>
<polygon fill="none" stroke="royalblue" points="8,-8 8,-85.25 588,-85.25 588,-8 8,-8"/>
<text text-anchor="middle" x="298" y="-67.95" font-family="Times,serif" font-size="14.00">cache/&lt;distro&gt;/</text>
</g>
<!-- DISTRO_IMG -->
<g id="node1" class="node">
<title>DISTRO_IMG</title>
<path fill="royalblue" stroke="black" d="M371.5,-618.23C371.5,-620.03 343.04,-621.5 308,-621.5 272.96,-621.5 244.5,-620.03 244.5,-618.23 244.5,-618.23 244.5,-588.77 244.5,-588.77 244.5,-586.97 272.96,-585.5 308,-585.5 343.04,-585.5 371.5,-586.97 371.5,-588.77 371.5,-588.77 371.5,-618.23 371.5,-618.23"/>
<path fill="none" stroke="black" d="M371.5,-618.23C371.5,-616.42 343.04,-614.95 308,-614.95 272.96,-614.95 244.5,-616.42 244.5,-618.23"/>
<text text-anchor="middle" x="308" y="-598.83" font-family="Times,serif" font-size="14.00">&lt;distro&gt;:latest</text>
</g>
<!-- ENV_IMG -->
<g id="node4" class="node">
<title>ENV_IMG</title>
<path fill="royalblue" stroke="black" d="M469.25,-500.44C469.25,-503.37 429.69,-505.75 381,-505.75 332.31,-505.75 292.75,-503.37 292.75,-500.44 292.75,-500.44 292.75,-452.62 292.75,-452.62 292.75,-449.69 332.31,-447.31 381,-447.31 429.69,-447.31 469.25,-449.69 469.25,-452.62 469.25,-452.62 469.25,-500.44 469.25,-500.44"/>
<path fill="none" stroke="black" d="M469.25,-500.44C469.25,-497.51 429.69,-495.12 381,-495.12 332.31,-495.12 292.75,-497.51 292.75,-500.44"/>
<text text-anchor="middle" x="381" y="-480.48" font-family="Times,serif" font-size="14.00">absl&#45;cxx:&lt;distro&gt;_env</text>
<text text-anchor="middle" x="381" y="-463.23" font-family="Times,serif" font-size="14.00">env</text>
</g>
<!-- DISTRO_IMG&#45;&gt;ENV_IMG -->
<g id="edge4" class="edge">
<title>DISTRO_IMG&#45;&gt;ENV_IMG</title>
<path fill="none" stroke="black" d="M318.15,-585.12C328.59,-567.25 345.2,-538.82 358.72,-515.68"/>
<polygon fill="black" stroke="black" points="361.7,-517.51 363.72,-507.11 355.66,-513.98 361.7,-517.51"/>
</g>
<!-- PKG -->
<g id="node2" class="node">
<title>PKG</title>
<polygon fill="royalblue" stroke="black" points="516.12,-624.75 393.88,-624.75 389.88,-620.75 389.88,-582.25 512.12,-582.25 516.12,-586.25 516.12,-624.75"/>
<polyline fill="none" stroke="black" points="512.12,-620.75 389.88,-620.75"/>
<polyline fill="none" stroke="black" points="512.12,-620.75 512.12,-582.25"/>
<polyline fill="none" stroke="black" points="512.12,-620.75 516.12,-624.75"/>
<text text-anchor="middle" x="453" y="-607.45" font-family="Times,serif" font-size="14.00">packages</text>
<text text-anchor="middle" x="453" y="-590.2" font-family="Times,serif" font-size="14.00">e.g. bazel, g++</text>
</g>
<!-- PKG&#45;&gt;ENV_IMG -->
<g id="edge5" class="edge">
<title>PKG&#45;&gt;ENV_IMG</title>
<path fill="none" stroke="black" stroke-dasharray="5,2" d="M441.11,-581.86C430.84,-564.03 415.71,-537.78 403.2,-516.07"/>
<polygon fill="black" stroke="black" points="406.27,-514.38 398.24,-507.46 400.2,-517.87 406.27,-514.38"/>
<text text-anchor="middle" x="451.84" y="-550.95" font-family="Times,serif" font-size="14.00">install</text>
</g>
<!-- SRC -->
<g id="node3" class="node">
<title>SRC</title>
<polygon fill="royalblue" stroke="black" points="574.12,-494.53 571.12,-498.53 550.12,-498.53 547.12,-494.53 501.88,-494.53 501.88,-458.53 574.12,-458.53 574.12,-494.53"/>
<text text-anchor="middle" x="538" y="-471.86" font-family="Times,serif" font-size="14.00">git repo</text>
</g>
<!-- DEVEL_IMG -->
<g id="node5" class="node">
<title>DEVEL_IMG</title>
<path fill="royalblue" stroke="black" d="M483.62,-388.75C483.62,-391.68 441.21,-394.06 389,-394.06 336.79,-394.06 294.38,-391.68 294.38,-388.75 294.38,-388.75 294.38,-340.94 294.38,-340.94 294.38,-338.01 336.79,-335.62 389,-335.62 441.21,-335.62 483.62,-338.01 483.62,-340.94 483.62,-340.94 483.62,-388.75 483.62,-388.75"/>
<path fill="none" stroke="black" d="M483.62,-388.75C483.62,-385.82 441.21,-383.44 389,-383.44 336.79,-383.44 294.38,-385.82 294.38,-388.75"/>
<text text-anchor="middle" x="389" y="-368.79" font-family="Times,serif" font-size="14.00">absl&#45;cxx:&lt;distro&gt;_devel</text>
<text text-anchor="middle" x="389" y="-351.54" font-family="Times,serif" font-size="14.00">devel</text>
</g>
<!-- SRC&#45;&gt;DEVEL_IMG -->
<g id="edge6" class="edge">
<title>SRC&#45;&gt;DEVEL_IMG</title>
<path fill="none" stroke="black" stroke-dasharray="5,2" d="M514.39,-458.15C493.62,-442.86 462.73,-420.12 436.81,-401.04"/>
<polygon fill="black" stroke="black" points="439.22,-398.47 429.1,-395.36 435.07,-404.11 439.22,-398.47"/>
<text text-anchor="middle" x="488.92" y="-416.01" font-family="Times,serif" font-size="14.00">copy</text>
</g>
<!-- ENV_IMG&#45;&gt;DEVEL_IMG -->
<g id="edge1" class="edge">
<title>ENV_IMG&#45;&gt;DEVEL_IMG</title>
<path fill="none" stroke="black" d="M383.08,-447C384.01,-434.3 385.11,-419.14 386.12,-405.38"/>
<polygon fill="black" stroke="black" points="389.58,-405.97 386.82,-395.74 382.6,-405.46 389.58,-405.97"/>
</g>
<!-- ENV_TAR -->
<g id="node8" class="node">
<title>ENV_TAR</title>
<polygon fill="royalblue" stroke="black" points="129.75,-52 16.25,-52 16.25,-16 135.75,-16 135.75,-46 129.75,-52"/>
<polyline fill="none" stroke="black" points="129.75,-52 129.75,-46"/>
<polyline fill="none" stroke="black" points="135.75,-46 129.75,-46"/>
<text text-anchor="middle" x="76" y="-29.32" font-family="Times,serif" font-size="14.00">docker_env.tar</text>
</g>
<!-- ENV_IMG&#45;&gt;ENV_TAR -->
<g id="edge7" class="edge">
<title>ENV_IMG&#45;&gt;ENV_TAR</title>
<path fill="none" stroke="red" d="M292.62,-463.36C196.38,-447.57 56,-415.94 56,-365.84 56,-365.84 56,-365.84 56,-156.72 56,-124.33 62.98,-87.72 68.69,-63.19"/>
<polygon fill="red" stroke="red" points="72.05,-64.2 71,-53.66 65.25,-62.55 72.05,-64.2"/>
<text text-anchor="middle" x="146" y="-264.73" font-family="Times,serif" font-size="14.00">make save_&lt;distro&gt;_env</text>
</g>
<!-- BUILD_IMG -->
<g id="node6" class="node">
<title>BUILD_IMG</title>
<path fill="royalblue" stroke="black" d="M485.5,-293.31C485.5,-296.24 443.59,-298.62 392,-298.62 340.41,-298.62 298.5,-296.24 298.5,-293.31 298.5,-293.31 298.5,-245.5 298.5,-245.5 298.5,-242.57 340.41,-240.19 392,-240.19 443.59,-240.19 485.5,-242.57 485.5,-245.5 485.5,-245.5 485.5,-293.31 485.5,-293.31"/>
<path fill="none" stroke="black" d="M485.5,-293.31C485.5,-290.38 443.59,-288 392,-288 340.41,-288 298.5,-290.38 298.5,-293.31"/>
<text text-anchor="middle" x="392" y="-273.36" font-family="Times,serif" font-size="14.00">absl&#45;cxx:&lt;distro&gt;_build</text>
<text text-anchor="middle" x="392" y="-256.11" font-family="Times,serif" font-size="14.00">build</text>
</g>
<!-- DEVEL_IMG&#45;&gt;BUILD_IMG -->
<g id="edge2" class="edge">
<title>DEVEL_IMG&#45;&gt;BUILD_IMG</title>
<path fill="none" stroke="black" d="M389.92,-335.3C390.17,-327.5 390.44,-318.89 390.71,-310.56"/>
<polygon fill="black" stroke="black" points="394.21,-310.72 391.03,-300.61 387.21,-310.49 394.21,-310.72"/>
</g>
<!-- DEVEL_TAR -->
<g id="node9" class="node">
<title>DEVEL_TAR</title>
<polygon fill="royalblue" stroke="black" points="282.25,-52 153.75,-52 153.75,-16 288.25,-16 288.25,-46 282.25,-52"/>
<polyline fill="none" stroke="black" points="282.25,-52 282.25,-46"/>
<polyline fill="none" stroke="black" points="288.25,-46 282.25,-46"/>
<text text-anchor="middle" x="221" y="-29.32" font-family="Times,serif" font-size="14.00">docker_devel.tar</text>
</g>
<!-- DEVEL_IMG&#45;&gt;DEVEL_TAR -->
<g id="edge8" class="edge">
<title>DEVEL_IMG&#45;&gt;DEVEL_TAR</title>
<path fill="none" stroke="red" d="M332.69,-335.4C317.23,-325.46 301.56,-313.1 290,-298.62 233.55,-227.96 222.93,-115.82 221.17,-63.56"/>
<polygon fill="red" stroke="red" points="224.68,-63.62 220.94,-53.71 217.68,-63.79 224.68,-63.62"/>
<text text-anchor="middle" x="345.11" y="-208.89" font-family="Times,serif" font-size="14.00">make save_&lt;distro&gt;_devel</text>
</g>
<!-- TEST_IMG -->
<g id="node7" class="node">
<title>TEST_IMG</title>
<path fill="royalblue" stroke="black" d="M475.38,-181.62C475.38,-184.56 435.32,-186.94 386,-186.94 336.68,-186.94 296.62,-184.56 296.62,-181.62 296.62,-181.62 296.62,-133.81 296.62,-133.81 296.62,-130.88 336.68,-128.5 386,-128.5 435.32,-128.5 475.38,-130.88 475.38,-133.81 475.38,-133.81 475.38,-181.62 475.38,-181.62"/>
<path fill="none" stroke="black" d="M475.38,-181.62C475.38,-178.69 435.32,-176.31 386,-176.31 336.68,-176.31 296.62,-178.69 296.62,-181.62"/>
<text text-anchor="middle" x="386" y="-161.67" font-family="Times,serif" font-size="14.00">absl&#45;cxx:&lt;distro&gt;_test</text>
<text text-anchor="middle" x="386" y="-144.42" font-family="Times,serif" font-size="14.00">test</text>
</g>
<!-- BUILD_IMG&#45;&gt;TEST_IMG -->
<g id="edge3" class="edge">
<title>BUILD_IMG&#45;&gt;TEST_IMG</title>
<path fill="none" stroke="black" d="M446.45,-240.08C458.17,-230.09 465.16,-218.05 458,-204.94 455.99,-201.27 453.56,-197.85 450.81,-194.66"/>
<polygon fill="black" stroke="black" points="453.53,-192.43 443.97,-187.85 448.59,-197.39 453.53,-192.43"/>
</g>
<!-- BUILD_TAR -->
<g id="node10" class="node">
<title>BUILD_TAR</title>
<polygon fill="royalblue" stroke="black" points="574.12,-52 447.88,-52 447.88,-16 580.12,-16 580.12,-46 574.12,-52"/>
<polyline fill="none" stroke="black" points="574.12,-52 574.12,-46"/>
<polyline fill="none" stroke="black" points="580.12,-46 574.12,-46"/>
<text text-anchor="middle" x="514" y="-29.32" font-family="Times,serif" font-size="14.00">docker_build.tar</text>
</g>
<!-- BUILD_IMG&#45;&gt;BUILD_TAR -->
<g id="edge9" class="edge">
<title>BUILD_IMG&#45;&gt;BUILD_TAR</title>
<path fill="none" stroke="red" d="M443.59,-239.73C450.9,-234.44 457.97,-228.55 464,-222.19 481.49,-203.72 517.91,-119.85 520,-110.5 523.43,-95.16 522.35,-77.69 520.22,-63.41"/>
<polygon fill="red" stroke="red" points="523.71,-63.03 518.53,-53.79 516.81,-64.24 523.71,-63.03"/>
<text text-anchor="middle" x="611.59" y="-153.04" font-family="Times,serif" font-size="14.00">make save_&lt;distro&gt;_build</text>
</g>
<!-- TEST_TAR -->
<g id="node11" class="node">
<title>TEST_TAR</title>
<polygon fill="royalblue" stroke="black" points="424,-52 306,-52 306,-16 430,-16 430,-46 424,-52"/>
<polyline fill="none" stroke="black" points="424,-52 424,-46"/>
<polyline fill="none" stroke="black" points="430,-46 424,-46"/>
<text text-anchor="middle" x="368" y="-29.32" font-family="Times,serif" font-size="14.00">docker_test.tar</text>
</g>
<!-- TEST_IMG&#45;&gt;TEST_TAR -->
<g id="edge10" class="edge">
<title>TEST_IMG&#45;&gt;TEST_TAR</title>
<path fill="none" stroke="red" d="M349.26,-128.18C344.58,-122.84 340.48,-116.9 337.75,-110.5 330.9,-94.46 337.7,-76.33 346.58,-61.85"/>
<polygon fill="red" stroke="red" points="349.36,-63.98 352.06,-53.74 343.56,-60.06 349.36,-63.98"/>
<text text-anchor="middle" x="428.88" y="-97.2" font-family="Times,serif" font-size="14.00">make save_&lt;distro&gt;_test</text>
</g>
</g>
</svg>
